<?xml version="1.0" encoding="UTF-8"?>
<svg id="_Слой_1" data-name="Слой_1" xmlns="http://www.w3.org/2000/svg" version="1.1" viewBox="0 0 300 300">
  <!-- Generator: Adobe Illustrator 29.5.0, SVG Export Plug-In . SVG Version: 2.1.0 Build 137)  -->
  <defs>
    <style>
      .st0 {
        fill: #fff;
      }

      .st1 {
        fill: red;
      }
    </style>
  </defs>
  <g>
    <path class="st0" d="M148,29.3c16.3,0,32.1,3.2,47,9.5,14.4,6.1,27.3,14.8,38.4,25.9,11.1,11.1,19.8,24,25.9,38.4,6.3,14.9,9.5,30.7,9.5,47s-3.2,32.1-9.5,47c-6.1,14.4-14.8,27.3-25.9,38.4-11.1,11.1-24,19.8-38.4,25.9-14.9,6.3-30.7,9.5-47,9.5s-32.1-3.2-47-9.5c-14.4-6.1-27.3-14.8-38.4-25.9-11.1-11.1-19.8-24-25.9-38.4-6.3-14.9-9.5-30.7-9.5-47s3.2-32.1,9.5-47c6.1-14.4,14.8-27.3,25.9-38.4,11.1-11.1,24-19.8,38.4-25.9,14.9-6.3,30.7-9.5,47-9.5M148,26.4c-68.3,0-123.6,55.3-123.6,123.6s55.3,123.6,123.6,123.6,123.6-55.3,123.6-123.6S216.3,26.4,148,26.4h0Z"/>
    <polygon class="st0" points="213.5 82.5 213.5 77.9 148 143.2 82.5 77.9 82.5 82.5 85.7 85.7 85.7 200.8 82.6 197.7 82.6 202.5 102.2 222.1 102.2 102.2 145.6 145.6 138 153.2 138 186.5 144.5 193 144.5 188.2 141.3 185 141.3 154.5 148 147.7 154.8 154.5 154.8 185 151.6 188.2 151.6 193 158 186.5 158 153.2 150.4 145.6 193.8 102.2 193.8 222.1 213.5 202.5 213.5 197.7 210.4 200.8 210.4 85.7 213.5 82.5"/>
  </g>
  <circle class="st1" cx="270" cy="150" r="5.6"/>
</svg>