<?xml version="1.0" encoding="UTF-8"?>
<svg id="_Слой_1" data-name="Слой 1" xmlns="http://www.w3.org/2000/svg" viewBox="0 0 300 300">
  <defs>
    <style>
      .cls-1 {
        fill: #fff;
      }

      .cls-2 {
        fill: #f80000;
      }
    </style>
  </defs>
  <path class="cls-1" d="M142.62,282.2c-72.89,0-132.2-59.3-132.2-132.2S69.73,17.8,142.62,17.8s132.2,59.3,132.2,132.2-59.3,132.2-132.2,132.2ZM142.62,25.69c-68.55,0-124.31,55.77-124.31,124.31s55.77,124.31,124.31,124.31,124.31-55.77,124.31-124.31S211.17,25.69,142.62,25.69Z"/>
  <circle class="cls-2" cx="270.8" cy="150" r="18.78"/>
  <polygon class="cls-1" points="224.29 72.55 224.29 61.42 142.62 142.91 60.95 61.42 60.95 72.55 64.81 76.41 64.81 210.99 61.02 207.19 61.02 218.56 88.82 246.37 88.82 100.44 136.91 148.54 128.52 156.93 128.52 199.15 140.24 210.87 140.24 199.58 136.35 195.69 136.35 160.12 142.62 153.85 148.89 160.12 148.89 195.69 144.99 199.58 144.99 210.87 156.72 199.15 156.72 156.93 148.33 148.54 196.42 100.44 196.42 246.37 224.22 218.56 224.22 207.19 220.43 210.99 220.43 76.41 224.29 72.55"/>
</svg>